<svg width="17" height="24" viewBox="0 0 17 24" fill="none" xmlns="http://www.w3.org/2000/svg">
<path fill-rule="evenodd" clip-rule="evenodd" d="M8.8129 1.09091e-05C7.71709 0.00107728 6.66645 0.442131 5.89009 1.22729C5.11472 2.01245 4.67871 3.07781 4.67661 4.18885V6.229H1.31136C1.01402 6.229 0.773438 6.47296 0.773438 6.77446V20.7273C0.773438 22.5351 2.21911 24 4.00098 24H13.6247C15.4066 24 16.8522 22.5351 16.8522 20.7273V6.77446C16.8522 6.62957 16.7955 6.49106 16.6947 6.38879C16.5938 6.28652 16.4572 6.22899 16.3143 6.22899H12.9491V4.18884C12.947 3.07769 12.511 2.01233 11.7356 1.22728C10.9592 0.442121 9.90853 0.00106364 8.81278 0L8.8129 1.09091e-05ZM5.7524 4.18885C5.7524 2.4747 7.12243 1.08547 8.8129 1.08547C10.5034 1.08547 11.8734 2.4747 11.8734 4.18885V6.229H5.7524V4.18885ZM15.7766 7.31978V20.7271C15.7766 21.3056 15.5497 21.8606 15.1462 22.2697C14.7427 22.6788 14.1954 22.9089 13.6249 22.9089H4.00117C2.81289 22.9089 1.84947 21.932 1.84947 20.7271V7.31978H4.6768V10.2707C4.6768 10.5722 4.9174 10.8162 5.21473 10.8162C5.51101 10.8162 5.75265 10.5722 5.75265 10.2707V7.31978H11.8737V10.2707C11.8737 10.5722 12.1153 10.8162 12.4116 10.8162C12.709 10.8162 12.9495 10.5722 12.9495 10.2707V7.31978H15.7766Z" fill="black"/>
</svg>
