<svg width="23" height="22" viewBox="0 0 23 22" fill="none" xmlns="http://www.w3.org/2000/svg">
<g clip-path="url(#clip0_9658_497)">
<ellipse cx="11.9458" cy="11" rx="11.0542" ry="11" fill="#F2DA91"/>
<path d="M9.83726 13.262C10.5413 12.6753 11.1023 12.1877 11.5203 11.799C11.9383 11.403 12.2866 10.9923 12.5653 10.567C12.8439 10.1417 12.9833 9.72367 12.9833 9.313C12.9833 8.939 12.8953 8.64567 12.7193 8.433C12.5433 8.22033 12.2719 8.114 11.9053 8.114C11.5386 8.114 11.2563 8.23867 11.0583 8.488C10.8603 8.73 10.7576 9.06367 10.7503 9.489H9.25426C9.2836 8.609 9.54393 7.94167 10.0353 7.487C10.5339 7.03233 11.1646 6.805 11.9273 6.805C12.7633 6.805 13.4049 7.02867 13.8523 7.476C14.2996 7.916 14.5233 8.499 14.5233 9.225C14.5233 9.797 14.3693 10.3433 14.0613 10.864C13.7533 11.3847 13.4013 11.8393 13.0053 12.228C12.6093 12.6093 12.0923 13.0713 11.4543 13.614H14.6993V14.89H9.26526V13.746L9.83726 13.262Z" fill="black"/>
</g>
<defs>
<clipPath id="clip0_9658_497">
<rect width="22.1084" height="22" fill="white" transform="translate(0.891602)"/>
</clipPath>
</defs>
</svg>
