<svg width="22" height="22" viewBox="0 0 22 22" fill="none" xmlns="http://www.w3.org/2000/svg">
<g clip-path="url(#clip0_9658_608)">
<g filter="url(#filter0_d_9658_608)">
<circle cx="11" cy="11" r="11" fill="#F2DA91"/>
</g>
<path d="M5.87926 12.745C5.93792 13.0677 6.06992 13.317 6.27526 13.493C6.48792 13.6617 6.77026 13.746 7.12226 13.746C7.57692 13.746 7.90692 13.559 8.11226 13.185C8.31759 12.8037 8.42026 12.1657 8.42026 11.271C8.25159 11.5057 8.01326 11.689 7.70526 11.821C7.40459 11.953 7.07826 12.019 6.72626 12.019C6.25692 12.019 5.83159 11.9237 5.45026 11.733C5.07626 11.535 4.77926 11.2453 4.55926 10.864C4.33926 10.4753 4.22926 10.006 4.22926 9.456C4.22926 8.642 4.47126 7.99667 4.95526 7.52C5.43926 7.036 6.09926 6.794 6.93526 6.794C7.97659 6.794 8.70992 7.12767 9.13526 7.795C9.56793 8.46233 9.78426 9.467 9.78426 10.809C9.78426 11.7623 9.69993 12.5433 9.53126 13.152C9.36993 13.7607 9.08759 14.2227 8.68426 14.538C8.28826 14.8533 7.74559 15.011 7.05626 15.011C6.51359 15.011 6.05159 14.9083 5.67026 14.703C5.28892 14.4903 4.99559 14.2153 4.79026 13.878C4.59226 13.5333 4.47859 13.1557 4.44926 12.745H5.87926ZM7.04526 10.765C7.42659 10.765 7.72726 10.6477 7.94726 10.413C8.16726 10.1783 8.27726 9.863 8.27726 9.467C8.27726 9.03433 8.15992 8.70067 7.92526 8.466C7.69792 8.224 7.38626 8.103 6.99026 8.103C6.59426 8.103 6.27892 8.22767 6.04426 8.477C5.81692 8.719 5.70326 9.04167 5.70326 9.445C5.70326 9.83367 5.81326 10.1527 6.03326 10.402C6.26059 10.644 6.59792 10.765 7.04526 10.765ZM12.965 12.745C13.0237 13.0677 13.1557 13.317 13.361 13.493C13.5737 13.6617 13.856 13.746 14.208 13.746C14.6627 13.746 14.9927 13.559 15.198 13.185C15.4033 12.8037 15.506 12.1657 15.506 11.271C15.3373 11.5057 15.099 11.689 14.791 11.821C14.4903 11.953 14.164 12.019 13.812 12.019C13.3427 12.019 12.9173 11.9237 12.536 11.733C12.162 11.535 11.865 11.2453 11.645 10.864C11.425 10.4753 11.315 10.006 11.315 9.456C11.315 8.642 11.557 7.99667 12.041 7.52C12.525 7.036 13.185 6.794 14.021 6.794C15.0623 6.794 15.7957 7.12767 16.221 7.795C16.6537 8.46233 16.87 9.467 16.87 10.809C16.87 11.7623 16.7857 12.5433 16.617 13.152C16.4557 13.7607 16.1733 14.2227 15.77 14.538C15.374 14.8533 14.8313 15.011 14.142 15.011C13.5993 15.011 13.1373 14.9083 12.756 14.703C12.3747 14.4903 12.0813 14.2153 11.876 13.878C11.678 13.5333 11.5643 13.1557 11.535 12.745H12.965ZM14.131 10.765C14.5123 10.765 14.813 10.6477 15.033 10.413C15.253 10.1783 15.363 9.863 15.363 9.467C15.363 9.03433 15.2457 8.70067 15.011 8.466C14.7837 8.224 14.472 8.103 14.076 8.103C13.68 8.103 13.3647 8.22767 13.13 8.477C12.9027 8.719 12.789 9.04167 12.789 9.445C12.789 9.83367 12.899 10.1527 13.119 10.402C13.3463 10.644 13.6837 10.765 14.131 10.765Z" fill="black"/>
</g>
<defs>
<filter id="filter0_d_9658_608" x="-2" y="-2" width="26" height="26" filterUnits="userSpaceOnUse" color-interpolation-filters="sRGB">
<feFlood flood-opacity="0" result="BackgroundImageFix"/>
<feColorMatrix in="SourceAlpha" type="matrix" values="0 0 0 0 0 0 0 0 0 0 0 0 0 0 0 0 0 0 127 0" result="hardAlpha"/>
<feOffset/>
<feGaussianBlur stdDeviation="1"/>
<feColorMatrix type="matrix" values="0 0 0 0 0 0 0 0 0 0 0 0 0 0 0 0 0 0 0.08 0"/>
<feBlend mode="normal" in2="BackgroundImageFix" result="effect1_dropShadow_9658_608"/>
<feBlend mode="normal" in="SourceGraphic" in2="effect1_dropShadow_9658_608" result="shape"/>
</filter>
<clipPath id="clip0_9658_608">
<rect width="22" height="22" fill="white"/>
</clipPath>
</defs>
</svg>
