<svg width="17" height="16" viewBox="0 0 17 16" fill="none" xmlns="http://www.w3.org/2000/svg">
<path id="close copy" fill-rule="evenodd" clip-rule="evenodd" d="M0.992627 15.8125C1.24256 16.0625 1.64779 16.0625 1.89772 15.8125L8.80518 8.9051L15.7126 15.8125C15.9626 16.0625 16.3678 16.0625 16.6177 15.8125C16.8677 15.5626 16.8677 15.1574 16.6177 14.9075L9.71027 8L16.6177 1.09255C16.8677 0.842613 16.8677 0.437387 16.6177 0.187451C16.3678 -0.0624842 15.9626 -0.0624842 15.7126 0.187451L8.80518 7.0949L1.89772 0.187452C1.64779 -0.0624839 1.24256 -0.0624839 0.992627 0.187452C0.742692 0.437387 0.742692 0.842613 0.992627 1.09255L7.90008 8L0.992627 14.9075C0.742692 15.1574 0.742692 15.5626 0.992627 15.8125Z" fill="black"/>
</svg>
