<svg width="17" height="17" viewBox="0 0 17 17" fill="none" xmlns="http://www.w3.org/2000/svg">
<path fill-rule="evenodd" clip-rule="evenodd" d="M7.33743 0C9.29823 0 11.1418 0.732088 12.5279 2.06084C15.2135 4.63432 15.3793 8.72258 13.0264 11.4835L16.475 14.789C16.7648 15.0668 16.7648 15.5169 16.475 15.7947C16.3301 15.9337 16.1402 16.0031 15.9504 16.0031C15.7605 16.0031 15.5707 15.9337 15.4257 15.7947L11.9772 12.4892C10.6707 13.5144 9.04896 14.0721 7.3373 14.0721C5.3765 14.0721 3.53294 13.3401 2.14684 12.0113C-0.715515 9.26837 -0.715515 4.8044 2.14684 2.06075C3.5332 0.732106 5.37663 0 7.33743 0ZM3.19623 11.0057C4.30274 12.0663 5.7731 12.6498 7.33747 12.6498C8.90184 12.6498 10.3722 12.0656 11.4787 11.0057C13.7621 8.817 13.7621 5.25524 11.4787 3.06673C10.3722 2.00681 8.90184 1.42266 7.33747 1.42266C5.7731 1.42266 4.30278 2.00681 3.19623 3.06673C0.912839 5.25595 0.912839 8.81717 3.19623 11.0057Z" fill="black"/>
</svg>
